<svg xmlns="http://www.w3.org/2000/svg" viewBox="0 0 64 64" width="64" height="64">
  <defs>
    <linearGradient id="brandGrad" x1="0%" y1="100%" x2="100%" y2="0%">
      <stop offset="0%" stop-color="#f43f5e" />
      <stop offset="50%" stop-color="#ec4899" />
      <stop offset="100%" stop-color="#ff2e93" />
    </linearGradient>
  </defs>
  <rect width="64" height="64" rx="18" fill="url(#brandGrad)" />
  <rect x="1" y="1" width="62" height="62" rx="17" fill="none" stroke="#ffffff" stroke-opacity="0.25" stroke-width="1.5" />
  <g transform="translate(14, 14) scale(1.5)" fill="none" stroke="#ffffff" stroke-width="2.2" stroke-linecap="round" stroke-linejoin="round">
    <path d="M20 21v-8a2 2 0 0 0-2-2H6a2 2 0 0 0-2 2v8" />
    <path d="M4 16s.5-1 2-1 2.5 2 4 2 2.5-2 4-2 2.5 2 4 2 2-1 2-1" />
    <path d="M2 21h20" />
    <path d="M7 8v2" />
    <path d="M12 8v2" />
    <path d="M17 8v2" />
    <path d="M7 4h.01" />
    <path d="M12 4h.01" />
    <path d="M17 4h.01" />
  </g>
</svg>
